<svg version="1" xmlns="http://www.w3.org/2000/svg" width="2048" height="2048" viewBox="0 0 1536.000000 1536.000000"><path d="M360.5.7C280 6.1 207 34.4 143.5 84.9c-15.4 12.2-46.4 43.2-58.6 58.6C38.1 202.4 11.8 265.8 2.3 342 .6 355.7.5 377.8.5 768s.1 412.3 1.8 426c9.5 76.2 35.8 139.6 82.6 198.5 12.2 15.4 43.2 46.4 58.6 58.6 58.9 46.8 122.3 73.1 198.5 82.6 13.7 1.7 35.8 1.8 426 1.8s412.3-.1 426-1.8c76.2-9.5 139.6-35.8 198.5-82.6 15.4-12.2 46.4-43.2 58.6-58.6 46.8-58.9 73.1-122.3 82.6-198.5 1.7-13.7 1.8-35.8 1.8-426s-.1-412.3-1.8-426c-9.5-76.2-35.8-139.6-82.6-198.5-12.2-15.4-43.2-46.4-58.6-58.6C1340.5 43.6 1282 17 1219 6 1185.7.2 1220.5.6 774 .5 549.3.4 363.3.5 360.5.7zm461 227.3c57.3 2.7 107.6 10.1 161 23.7 86.4 21.9 170.1 60.5 232 106.9 16.8 12.6 19.5 15.3 19.5 19.9 0 3.1-25.1 54.7-127.9 262.9-70.3 142.5-143.2 290.1-161.9 328.1-18.7 37.9-47.1 95.5-63.2 128-52.4 105.8-80 161.5-92.6 187.2-10.3 21-12.8 25.5-15.3 26.8-4.4 2.2-7.7 1.9-11.1-1.2-2.1-2-29.4-56.3-94.4-187.8-50.2-101.8-106.1-214.7-124.1-251-18-36.3-46.7-94.4-63.7-129-17.1-34.7-63.7-128.9-103.6-209.5-77.6-157.1-74.1-149.3-71-158.4 1.1-3.3 3-5.2 10.8-10.8 20.4-14.7 51.4-33 81.6-48.1 125.9-62.9 278.3-94.4 423.9-87.7z"/><path d="M743 248.1c-119.6 5.6-235.2 35.1-337.4 86.1-34.2 17.1-80.6 45.1-80.6 48.7 0 1.2 127.9 260.3 129.1 261.6.6.6 3-1.2 6.7-5.1 10-10.6 25.1-21.4 39.7-28.3 40.6-19.2 88.9-17 126.8 5.7 36.9 22.1 61.4 57 70.7 100.9 2.7 12.7 3.7 36.9 2.1 49.5-3.5 26.4-12.8 51.2-26.8 71.1-7.5 10.7-23.3 27-33.4 34.3-15.4 11.3-36 20.6-54.5 24.6l-6.1 1.3 58.3 118c32.1 64.9 74.6 150.8 94.5 191l36.2 73 12.2-25c6.7-13.8 24.9-50.5 40.3-81.7l28-56.7-9.2-4.4c-65.3-30.9-96.9-105-74-173.4 14.9-44.5 50.3-78.3 95.7-91.2 13.8-4 23.6-5.3 39.2-5.3 22.6 0 43.2 4.9 63.8 15.2 5.6 2.8 10.3 4.8 10.4 4.3.2-.4 53.6-108.8 118.8-240.7 65.2-132 118.4-240 118.3-240.1-.2-.1-3.9-2.9-8.3-6.2-66.6-50.1-158.7-90.3-253-110.7-65.5-14.1-136.9-19.8-207.5-16.5zm174.3 159.4c31.5 4.2 59.2 18 81.5 40.6 33.4 34 47.4 81.4 37.7 128.2-3.6 17.3-13 38.3-24.1 53.8-12 16.6-32.1 33.4-51.3 42.9-63.5 31.4-140.7 10.5-179.6-48.5-10-15.3-16.7-31.4-20.6-49.7-3.2-14.8-3.2-41-.1-55.5 6.1-28.2 18.9-51.9 38.8-71.7 31.3-31.4 74-45.9 117.7-40.1z"/><path d="M883.5 427.1c-26.4 3.6-52.2 16.6-70.7 35.5-28 28.6-40.1 69.5-32.2 108.4 12.3 60 68.8 102 129.2 96 58.8-5.9 103.6-50.7 109.1-109.3 2.3-23.4-3.1-49-14.4-69.2-17.1-30.7-47.5-52.9-81.8-59.9-9.8-2-29.9-2.8-39.2-1.5zM541.3 619.1c-7.7 1.1-22.7 5.8-31.5 9.7-11.6 5.3-23.7 14-35 25.3L464 664.8l14.4 29.3c7.9 16.2 31.5 64 52.4 106.3 21 42.2 38.3 77.3 38.5 77.9.5 1.6 14.1-.8 24.9-4.3 18.4-6.2 33.6-15.6 47.8-29.9 11-11 17.4-19.7 24.2-33 9.2-18 13.7-35.8 14.5-57.6.4-12.5.2-17.1-1.6-27.3-9.4-55.4-49.6-97.6-101.6-106.6-9.7-1.7-26.2-1.9-36.2-.5zM889.9 863.1c-41.4 3.2-79 28.2-98.1 65.5-19.9 38.8-17.9 83.4 5.3 121.1 6.7 10.8 24.3 28.9 34.9 35.8 7.1 4.6 25.1 13.7 25.8 13.1.2-.2 24.4-49.1 53.8-108.7 50.1-101.3 53.4-108.4 51.7-109.7-1-.7-5.4-3.1-9.8-5.2-20-9.7-40.8-13.6-63.6-11.9z"/></svg>